<svg xmlns="http://www.w3.org/2000/svg" width="50" height="50" viewBox="0 0 50 50"><g transform="translate(-249 -68)"><circle cx="25" cy="25" r="25" transform="translate(249 68)" fill="#ffc720"/><path d="M130.5,132h1.834a2.486,2.486,0,0,0-.16.711l-.007.189v11a2.5,2.5,0,0,0,2.354,2.5l.147,0h6.5a2.5,2.5,0,0,1-2.334,1.6H130.5a2.5,2.5,0,0,1-2.5-2.5v-11a2.5,2.5,0,0,1,2.5-2.5h0Zm11.832-4a1.667,1.667,0,0,1,1.155.464l4,3.845a1.667,1.667,0,0,1,.513,1.2V143.1a2.5,2.5,0,0,1-2.5,2.5h-10a2.5,2.5,0,0,1-2.5-2.5V130.5a2.5,2.5,0,0,1,2.5-2.5Zm1.121,11.2h-5.9a.8.8,0,0,0-.093,1.6l.093.005h5.9a.8.8,0,0,0,0-1.6Zm0-3.2h-5.9a.8.8,0,0,0-.093,1.6l.093,0h5.9a.8.8,0,0,0,0-1.6Zm-.45-6.24a.417.417,0,0,0-.41.342l-.007.075v2.606a.417.417,0,0,0,.342.41l.075.007h2.715a.417.417,0,0,0,.338-.661l-.05-.057-2.715-2.606A.417.417,0,0,0,143,129.761Z" transform="translate(135.998 -45.002)" fill="#fff"/></g></svg>