<svg xmlns="http://www.w3.org/2000/svg" width="50" height="50" viewBox="0 0 50 50"><g transform="translate(-82 -68)"><circle cx="25" cy="25" r="25" transform="translate(82 68)" fill="#03a0c2"/><path d="M19.416,6.68a.765.765,0,0,1-.667-.835V3.737a1.916,1.916,0,0,0-1.669-2.089H3.058a1.558,1.558,0,0,0-1.669,1.69.685.685,0,1,1-1.336,0A3.052,3.052,0,0,1,3.059,0H17.08c1.659,0,3,1.662,3,3.734V5.842a.765.765,0,0,1-.667.835v0Zm.156,1.669H14.528c-.358,0-2.36-3.337-2.9-3.337H2.558c-1.384,0-2.5,1.4-2.5,3.13V16.9c0,1.727,1.121,3.128,2.5,3.128H17.58c1.384,0,2.5-1.4,2.5-3.128v-7.6c0-.42-.2-.958-.511-.958ZM8.733,10.018H4.727a.859.859,0,0,1,0-1.669H8.733a.859.859,0,0,1,0,1.669Z" transform="translate(96.938 82.984)" fill="#fff"/></g></svg>