<?xml version="1.0" standalone="no"?><!DOCTYPE svg PUBLIC "-//W3C//DTD SVG 1.1//EN" "http://www.w3.org/Graphics/SVG/1.1/DTD/svg11.dtd"><svg t="1618314896664" class="icon" viewBox="0 0 1024 1024" version="1.1" xmlns="http://www.w3.org/2000/svg" p-id="4785" xmlns:xlink="http://www.w3.org/1999/xlink" width="48" height="48"><defs><style type="text/css"></style></defs><path d="M727.289444 0.06396c-3.965522 0-383.76015 0-383.76015 0-67.669706 0-127.92005 62.105184-127.92005 127.92005L178.64035 128.87945c-67.669706 0-122.931168 61.209744-122.931168 127.02461l0 639.60025c0 65.814866 60.250344 127.92005 127.92005 127.92005l479.700187 0c67.669706 0 127.92005-62.105184 127.92005-127.92005l31.980012 0c67.669706 0 127.92005-62.105184 127.92005-127.92005l0-447.720175L951.149532 256.67158 727.289444 0.06396zM663.329419 959.464335l-479.700187 0c-33.579013 0-63.960025-31.404372-63.960025-63.960025l0-639.60025c0-32.555653 27.374891-62.936665 60.953904-62.936665l35.050094-1.02336 0 575.640225c0 65.814866 60.250344 127.92005 127.92005 127.92005l383.76015 0C727.289444 928.123923 696.844472 959.464335 663.329419 959.464335zM887.189507 767.58426c0 32.555653-30.381012 63.960025-63.960025 63.960025l-479.700187 0c-33.579013 0-63.960025-31.404372-63.960025-63.960025l0-639.60025c0-32.555653 30.381012-63.960025 63.960025-63.960025l319.800125 0c-0.51168 73.681949 0 128.75153 0 128.75153 0 66.454466 59.802623 127.08857 127.92005 127.08857 0 0 33.962773 0 95.940037 0L887.189507 767.58426zM791.249469 255.90406c-34.090693 0-63.960025-61.849344-63.960025-95.108557 0 0 0-33.642973 0-95.812117L727.289444 64.983385l159.900062 190.920675L791.249469 255.90406zM727.289444 448.359775l-287.820112 0c-17.652967 0-31.980012 14.327046-31.980012 31.980012 0 17.652967 14.327046 31.980012 31.980012 31.980012l287.820112 0c17.652967 0 31.980012-14.327046 31.980012-31.980012C759.269457 462.686821 744.942411 448.359775 727.289444 448.359775zM727.289444 608.067958l-287.820112 0c-17.652967 0-31.980012 14.327046-31.980012 31.980012 0 17.652967 14.327046 31.980012 31.980012 31.980012l287.820112 0c17.652967 0 31.980012-14.327046 31.980012-31.980012C759.269457 622.395003 744.942411 608.067958 727.289444 608.067958z" p-id="4786" fill="#36b7ab"></path></svg>