<svg xmlns="http://www.w3.org/2000/svg" width="50" height="50" viewBox="0 0 50 50"><g transform="translate(-166 -68)"><circle cx="25" cy="25" r="25" transform="translate(166 68)" fill="#1cc842"/><g transform="translate(49.205 60.376)"><g transform="translate(131.28 23.119)"><path d="M18.343,0H2.743a2.684,2.684,0,0,0-2.7,2.663V15.258a.79.79,0,0,0,0,.405v.684a2.684,2.684,0,0,0,2.7,2.663h15.6a2.684,2.684,0,0,0,2.7-2.663V2.663A2.684,2.684,0,0,0,18.343,0ZM2.743,1.621h15.6A1.053,1.053,0,0,1,19.4,2.663V12.779a17.962,17.962,0,0,0-2.121-2.415,1.96,1.96,0,0,0-1.651-.509c-.981.139-2.057.944-3.284,2.455q-.405.5-.776,1.025A26.893,26.893,0,0,0,6.556,7.9a1.921,1.921,0,0,0-1.745-.26,4.174,4.174,0,0,0-1.968,1.7A15.336,15.336,0,0,0,1.679,11.3V2.663A1.054,1.054,0,0,1,2.743,1.621Z" transform="translate(-0.014)" fill="#fff"/><path d="M697.192,262.862a1.416,1.416,0,1,0,1.416-1.416A1.416,1.416,0,0,0,697.192,262.862Z" transform="translate(-684.249 -256.593)" fill="#fff"/></g></g></g></svg>