<?xml version="1.0" standalone="no"?><!DOCTYPE svg PUBLIC "-//W3C//DTD SVG 1.1//EN" "http://www.w3.org/Graphics/SVG/1.1/DTD/svg11.dtd"><svg t="1618642420478" class="icon" viewBox="0 0 1024 1024" version="1.1" xmlns="http://www.w3.org/2000/svg" p-id="5555" data-spm-anchor-id="a313x.7781069.0.i7" xmlns:xlink="http://www.w3.org/1999/xlink" width="48" height="48"><defs><style type="text/css"></style></defs><path d="M124.074667 136.533333H523.605333c8.567467 0 16.861867 3.140267 23.210667 8.8064L669.013333 219.579733h219.306667c18.432 0 36.078933 7.236267 49.117867 20.0704 13.038933 12.834133 20.343467 30.276267 20.343466 48.469334v464.964266c0 18.193067-7.304533 35.601067-20.343466 48.469334a69.973333 69.973333 0 0 1-49.152 20.036266H124.1088a69.973333 69.973333 0 0 1-49.117867-20.0704A68.027733 68.027733 0 0 1 54.613333 753.083733V205.038933C54.613333 167.253333 85.7088 136.533333 124.074667 136.533333z" fill="#79D7CE" p-id="5556" data-spm-anchor-id="a313x.7781069.0.i4" class=""></path><path d="M205.960533 286.72h616.5504A34.269867 34.269867 0 0 1 856.746667 320.989867v342.528a68.539733 68.539733 0 0 1-68.5056 68.5056H240.196267a68.5056 68.5056 0 0 1-68.5056-68.5056V320.989867A34.269867 34.269867 0 0 1 205.960533 286.72z" fill="#f7f7f7" p-id="5557" data-spm-anchor-id="a313x.7781069.0.i9" class="selected"></path><path d="M124.074667 326.2464h764.245333c18.432 0 36.078933 7.236267 49.117867 20.0704 13.038933 12.834133 20.343467 30.276267 20.343466 48.469333v479.505067c0 18.193067-7.304533 35.601067-20.343466 48.469333a69.973333 69.973333 0 0 1-49.152 20.0704H124.1088a69.973333 69.973333 0 0 1-49.117867-20.0704A68.027733 68.027733 0 0 1 54.613333 874.2912V394.752c0-37.819733 31.095467-68.5056 69.461334-68.5056z" fill="#36b7ab" p-id="5558" data-spm-anchor-id="a313x.7781069.0.i1" class="selected"></path><path d="M279.893333 788.138667m33.450667 0l401.408 0q33.450667 0 33.450667 33.450666l0 0q0 33.450667-33.450667 33.450667l-401.408 0q-33.450667 0-33.450667-33.450667l0 0q0-33.450667 33.450667-33.450666Z" fill="#f7f7f7" p-id="5559" data-spm-anchor-id="a313x.7781069.0.i6" class="selected"></path><path d="M507.630933 403.456c12.219733 0 22.9376 5.5296 29.013334 13.824l138.752 128.4096c12.629333 11.605333 12.253867 29.7984-0.8192 41.028267l-0.8192 0.682666a36.7616 36.7616 0 0 1-46.592 0l-85.333334-79.394133v208.452267c0 16.315733-15.291733 29.525333-34.235733 29.525333-18.909867 0-34.269867-13.2096-34.269867-29.525333v-211.968L379.221333 587.229867c-12.117333 10.6496-31.3344 11.639467-44.782933 2.798933l-3.549867-2.730667a26.760533 26.760533 0 0 1-0.136533-41.642666l148.923733-129.706667c6.144-7.543467 16.384-12.4928 27.9552-12.4928z" fill="#f7f7f7" p-id="5560" data-spm-anchor-id="a313x.7781069.0.i8" class="selected"></path></svg>