<?xml version="1.0" standalone="no"?><!DOCTYPE svg PUBLIC "-//W3C//DTD SVG 1.1//EN" "http://www.w3.org/Graphics/SVG/1.1/DTD/svg11.dtd"><svg t="1618639558469" class="icon" viewBox="0 0 1024 1024" version="1.1" xmlns="http://www.w3.org/2000/svg" p-id="2042" xmlns:xlink="http://www.w3.org/1999/xlink" width="48" height="48"><defs><style type="text/css"></style></defs><path d="M512 512m-512 0a512 512 0 1 0 1024 0 512 512 0 1 0-1024 0Z" fill="#2CC534" p-id="2043"></path><path d="M626.501818 408.901818c7.447273 0 14.894545 0.698182 22.109091 1.163637-20.014545-91.461818-118.458182-159.185455-231.330909-159.185455-125.905455 0-229.236364 85.178182-229.236364 192.930909 0 62.138182 34.210909 113.338182 91.694546 152.901818l-22.807273 68.189091 80.058182-39.796363c28.625455 5.585455 51.898182 11.403636 80.290909 11.403636 7.214545 0 14.196364-0.232727 21.410909-0.930909a168.96 168.96 0 0 1-7.214545-47.709091c0.232727-98.210909 86.109091-178.967273 195.025454-178.967273z m-123.112727-61.207273c17.221818 0 28.625455 11.403636 28.625454 28.392728s-11.403636 28.392727-28.625454 28.392727-34.443636-11.403636-34.443636-28.392727c0-17.454545 17.221818-28.392727 34.443636-28.392728z m-160.581818 56.552728c-17.221818 0-34.443636-11.403636-34.443637-28.392728s17.221818-28.392727 34.443637-28.392727 28.625455 11.403636 28.625454 28.392727-11.636364 28.392727-28.625454 28.392728z m493.149091 181.527272c0-90.763636-91.694545-164.538182-194.792728-164.538181-108.916364 0-195.025455 73.774545-195.025454 164.538181s86.109091 164.538182 195.025454 164.538182c22.807273 0 45.847273-5.585455 68.654546-11.403636l62.836363 33.978182-17.221818-56.552728c45.847273-33.978182 80.523636-79.36 80.523637-130.56z m-258.094546-28.16c-11.403636 0-22.807273-11.403636-22.807273-22.574545s11.636364-22.574545 22.807273-22.574545c17.221818 0 28.625455 11.403636 28.625455 22.574545s-11.403636 22.574545-28.625455 22.574545z m126.138182 0c-11.403636 0-22.574545-11.403636-22.574545-22.574545s11.403636-22.574545 22.574545-22.574545c17.221818 0 28.625455 11.403636 28.625455 22.574545s-11.636364 22.574545-28.625455 22.574545z m0 0" fill="#FFFFFF" p-id="2044"></path></svg>