<svg xmlns="http://www.w3.org/2000/svg" width="55.056" height="55.056" viewBox="0 0 55.056 55.056"><g transform="translate(-196.544 -425.626)"><circle cx="17" cy="17" r="17" transform="translate(208 439)" fill="#36b7ab"/><path d="M88.707,84.75a2.168,2.168,0,0,1-.1-.382c0-.076,0-.076-.076-.21a1.351,1.351,0,0,0-.21-.478V83.6c-.1-.21-.21-.306-.21-.478-.1-.076-.1-.076-.1-.21-.076-.076-.21-.21-.21-.306l-.076-.1c-.1-.076-.21-.306-.382-.382l-.1-.076-.382-.306c-.076-.076-.076-.076-.21-.076-.076-.076-.21-.21-.306-.21a.227.227,0,0,0-.21-.076,2.927,2.927,0,0,1-.478-.306c-.076-.1-.076-.1-.21-.1-.076-.076-.21-.076-.382-.21a.336.336,0,0,0-.21-.076l-.306-.21a.371.371,0,0,0-.21-.076l-.478-.21a3.023,3.023,0,0,0-1.243-.306,8.107,8.107,0,0,0,2.715-6.232c0-4.263-3.02-7.876-6.71-7.876s-6.71,3.479-6.71,7.876a8.162,8.162,0,0,0,2.715,6.232c-.382.076-.86.21-1.243.306l-.593.306a.371.371,0,0,1-.21.076l-.306.21c.038.134-.038.134-.038.134-.076.076-.21.076-.382.21-.076.1-.076.1-.21.1a2.928,2.928,0,0,0-.478.306.227.227,0,0,1-.21.076c-.1.076-.21.21-.306.21-.076.076-.076.076-.21.076l-.249.268-.1.076-.382.382c0,.076,0,.076-.076.076-.076.076-.21.21-.21.306-.1.134-.1.134-.1.21a1.351,1.351,0,0,1-.21.478v.076c-.076.21-.21.306-.21.478,0,.076-.076.076-.076.21-.1.076-.1.21-.1.382v.21c-.076.076-.076.21-.076.382v.593c0,3.1,1.376,5.639,4.473,5.639H84.329c3.1,0,4.473-2.543,4.473-5.639v-.593a.8.8,0,0,0-.1-.478ZM73.05,79.512a8.426,8.426,0,0,1-2.237-5.85,8.714,8.714,0,0,1,1.243-4.473H71.98c-2.409,0-4.473,2.332-4.473,5.028a5.558,5.558,0,0,0,1.759,4.091c-1.931.382-4,1.854-4,3.613V82.3c0,1.759.688,3.231,2.237,3.613V84.846C67.507,82.341,70.336,80.2,73.05,79.512Zm15.064-1.166a5.169,5.169,0,0,0,1.759-4.091A4.745,4.745,0,0,0,85.4,69.227h-.076a8.728,8.728,0,0,1-.994,10.323c2.715.688,5.639,2.848,5.639,5.334v1.071c1.548-.306,2.237-1.759,2.237-3.613v-.382C92.11,80.2,89.95,78.728,88.115,78.346Zm18.142.382A27.528,27.528,0,1,1,78.728,51.2,27.56,27.56,0,0,1,106.256,78.728Z" transform="translate(145.344 374.426)" fill="#d6f1ee"/></g></svg>