<?xml version="1.0" standalone="no"?><!DOCTYPE svg PUBLIC "-//W3C//DTD SVG 1.1//EN" "http://www.w3.org/Graphics/SVG/1.1/DTD/svg11.dtd"><svg t="1618927484892" class="icon" viewBox="0 0 1024 1024" version="1.1" xmlns="http://www.w3.org/2000/svg" p-id="28263" data-spm-anchor-id="a313x.7781069.0.i50" xmlns:xlink="http://www.w3.org/1999/xlink" width="48" height="48"><defs><style type="text/css"></style></defs><path d="M512 512m-512 0a512 512 0 1 0 1024 0 512 512 0 1 0-1024 0Z" p-id="28264" data-spm-anchor-id="a313x.7781069.0.i48" class="" fill="#eaf8f7"></path><path d="M725.2992 307.3536c23.552 0 42.6496 19.0976 42.6496 42.6496V648.704c0 23.552-19.0976 42.6496-42.6496 42.6496h-128L527.104 761.6a21.2736 21.2736 0 0 1-30.1568 0l-70.2976-70.2464h-128c-23.552 0-42.6496-19.0976-42.6496-42.6496V350.0544c0-23.6032 19.0976-42.7008 42.6496-42.7008h426.6496z m-170.6496 213.3504H384v42.6496h170.6496V520.704zM640 435.3536H384v42.6496h256v-42.6496z" p-id="28265" data-spm-anchor-id="a313x.7781069.0.i49" class="selected" fill="#68c9c0"></path></svg>