<?xml version="1.0" standalone="no"?><!DOCTYPE svg PUBLIC "-//W3C//DTD SVG 1.1//EN" "http://www.w3.org/Graphics/SVG/1.1/DTD/svg11.dtd"><svg t="1618927094408" class="icon" viewBox="0 0 1024 1024" version="1.1" xmlns="http://www.w3.org/2000/svg" p-id="15726" xmlns:xlink="http://www.w3.org/1999/xlink" width="48" height="48"><defs><style type="text/css"></style></defs><path d="M745.984 269.824h-89.6v14.848c0 25.6-19.456 45.056-45.056 45.056H417.28c-25.6 0-45.056-19.456-45.056-45.056v-14.848H283.136c-9.216 0-14.848 6.144-14.848 14.848v493.056c0 9.216 6.144 14.848 14.848 14.848h463.36c9.216 0 14.848-6.144 14.848-14.848V284.672c0-9.216-6.144-14.848-15.36-14.848zM537.088 583.68H402.432c-9.216 0-14.848-6.144-14.848-14.848s6.144-14.848 14.848-14.848h134.656c9.216 0 14.848 6.144 14.848 14.848s-6.144 14.848-14.848 14.848z m104.448-104.96H402.432c-9.216 0-14.848-6.144-14.848-14.848s6.144-14.848 14.848-14.848h239.104c9.216 0 14.848 6.144 14.848 14.848s-5.632 14.848-14.848 14.848z" fill="#68c9c0" p-id="15727" data-spm-anchor-id="a313x.7781069.0.i34" class="selected"></path><path d="M417.28 299.52h194.048c9.216 0 14.848-6.144 14.848-14.848v-45.056c0-9.216-6.144-14.848-14.848-14.848h-45.056v-29.696c0-9.216-6.144-14.848-14.848-14.848H477.184c-9.216 0-14.848 6.144-14.848 14.848v29.696h-45.056c-9.216 0-14.848 6.144-14.848 14.848v45.056c0 8.704 6.144 14.848 14.848 14.848z" fill="#68c9c0" p-id="15728" data-spm-anchor-id="a313x.7781069.0.i35" class="selected"></path><path d="M514.56 15.36C241.664 15.36 20.48 236.544 20.48 509.44S241.664 1003.52 514.56 1003.52 1008.64 782.336 1008.64 509.44 787.456 15.36 514.56 15.36z m276.48 762.368c0 25.6-19.456 45.056-45.056 45.056H283.136c-25.6 0-45.056-19.456-45.056-45.056V284.672c0-25.6 19.456-45.056 45.056-45.056h89.6c0-25.6 19.456-45.056 45.056-45.056h14.848c0-25.6 19.456-45.056 45.056-45.056h74.752c25.6 0 45.056 19.456 45.056 45.056h14.848c25.6 0 45.056 19.456 45.056 45.056h89.6c25.6 0 45.056 19.456 45.056 45.056v493.056z" fill="#d6f1ee" p-id="15729" data-spm-anchor-id="a313x.7781069.0.i33" class="selected"></path></svg>