<svg xmlns="http://www.w3.org/2000/svg" width="76.261" height="26.309" viewBox="0 0 76.261 26.309"><g transform="translate(-72.521 -416.315)"><path d="M0,0H50A13,13,0,0,1,63,13v0A13,13,0,0,1,50,26H0a0,0,0,0,1,0,0V0A0,0,0,0,1,0,0Z" transform="translate(85.783 416.315)" fill="#d6f1ee"/><rect width="16" height="12" transform="translate(78.783 423.315)" fill="#fff"/><path d="M39.178,71.282l-5.7-7.239a3.149,3.149,0,0,0-2.413-1.207H19.672a2.953,2.953,0,0,0-2.413,1.207l-5.63,7.239a3.242,3.242,0,0,0,.134,4.156L23.225,87.905l.134.134a3.582,3.582,0,0,0,2.078.871h.134a3.233,3.233,0,0,0,2.145-1.005L38.91,75.5A3.349,3.349,0,0,0,39.178,71.282Zm-6.837,3.284-5.362,5.094a2.323,2.323,0,0,1-2.949.067l-.134-.067L18.332,74.5a.874.874,0,0,1,.067-1.274,1.121,1.121,0,0,1,1.475.067l5.5,5.094,5.362-5.027a1.206,1.206,0,0,1,1.475-.067.824.824,0,0,1,.134,1.274Z" transform="translate(61.583 353.714)" fill="#36b7ab"/><text transform="translate(109.783 436.315)" fill="#36b7ab" font-size="18" font-family="PingFangSC-Medium, PingFang SC" font-weight="500"><tspan x="0" y="0">VIP</tspan></text></g></svg>