<svg xmlns="http://www.w3.org/2000/svg" width="55" height="55" viewBox="0 0 55 55"><defs><style>.a,.b{fill:#36b7ab;}.b{opacity:0.199;}</style></defs><g transform="translate(-306 -312)"><path class="a" d="M126.215,1A11.608,11.608,0,0,0,114.7,12.7a11.775,11.775,0,0,0,2.052,6.661,2.461,2.461,0,0,0,.2.311l7.84,10.037a1.7,1.7,0,0,0,2.854,0l7.84-10.034a2.766,2.766,0,0,0,.187-.3,11.76,11.76,0,0,0,2.058-6.664A11.61,11.61,0,0,0,126.215,1Zm0,16.384a4.682,4.682,0,1,1,4.606-4.681A4.649,4.649,0,0,1,126.215,17.384Z" transform="translate(207.286 323.759)"/><circle class="b" cx="27.5" cy="27.5" r="27.5" transform="translate(306 312)"/></g></svg>