<svg xmlns="http://www.w3.org/2000/svg" width="55" height="55" viewBox="0 0 55 55">
  <defs>
    <style>.a,.b{fill:#36b7ab;}.a{opacity:0.199;}</style>
  </defs>
  <g transform="translate(-166 -309)">
    <circle class="a" cx="27.5" cy="27.5" r="27.5" transform="translate(166 309)"/>
    <path class="b"
          d="M91.155,196.784a1.345,1.345,0,0,0,.717-1.419v-4.259a2.139,2.139,0,0,0-2.147-2.13H64.648a2.139,2.139,0,0,0-2.148,2.13v4.26c0,.635.044,1.062.717,1.419a3.279,3.279,0,0,1,2.147,2.841,2.736,2.736,0,0,1-2.106,2.835,1.637,1.637,0,0,0-.758,1.422v4.26a2.139,2.139,0,0,0,2.148,2.13H89.725a2.139,2.139,0,0,0,2.147-2.13v-4.26a1.417,1.417,0,0,0-.717-1.419c-1.564-.8-2.147-1.509-2.147-2.84S89.556,197.632,91.155,196.784Zm-9.674,2.469a.355.355,0,0,1-.357.354H77.9v1.419h3.221a.355.355,0,0,1,.357.354v.711a.355.355,0,0,1-.357.354H77.9v2.484a.355.355,0,0,1-.357.354h-.717a.355.355,0,0,1-.357-.354v-2.484H73.251a.355.355,0,0,1-.357-.354v-.711a.355.355,0,0,1,.357-.354h3.218v-1.419H73.248a.355.355,0,0,1-.357-.354v-.711a.355.355,0,0,1,.357-.354h2.711l-2.941-3.133a.369.369,0,0,1,0-.494l.457-.494a.3.3,0,0,1,.454,0l3.254,3.467,3.251-3.464a.308.308,0,0,1,.46,0l.46.5a.372.372,0,0,1,0,.5l-2.932,3.125h2.7a.357.357,0,0,1,.357.354v.711Z"
          transform="translate(116.314 136.877)"/>
  </g>
</svg>
