<svg xmlns="http://www.w3.org/2000/svg" width="30" height="42" viewBox="0 0 30 42"><g transform="translate(-109 -319)"><g transform="translate(109 319)" fill="#36b7ab" stroke="#36b7ab" stroke-width="1"><circle cx="15" cy="15" r="15" stroke="none"/><circle cx="15" cy="15" r="14.5" fill="none"/></g><g transform="translate(137 361) rotate(180)" fill="#36b7ab"><path d="M 25.07866096496582 19.5 L 0.9213384985923767 19.5 L 13 0.9174438714981079 L 25.07866096496582 19.5 Z" stroke="none"/><path d="M 13 1.834897994995117 L 1.842683792114258 19 L 24.15731620788574 19 L 13 1.834897994995117 M 13 0 L 26 20 L 0 20 L 13 0 Z" stroke="none" fill="#36b7ab"/></g><circle cx="13" cy="13" r="13" transform="translate(111 321)" fill="#fff"/><g transform="translate(116.562 326.562)"><path d="M307.7,346.788h4.959a.5.5,0,0,0,0-.992H307.7a.5.5,0,1,0,0,.992Zm4.959.992H307.7a.5.5,0,1,0,0,.992h4.959a.533.533,0,0,0,.5-.5A.454.454,0,0,0,312.655,347.78Zm2.479-6.447a.5.5,0,1,0,.5.5A.454.454,0,0,0,315.134,341.333Z" transform="translate(-302.737 -336.374)" fill="#36b7ab"/><path d="M13.885,2.975H11.9V.992A1.067,1.067,0,0,0,10.909,0H3.967a1.067,1.067,0,0,0-.992.992V2.975H.992A1.067,1.067,0,0,0,0,3.967V8.926a1.067,1.067,0,0,0,.992.992H2.479v3.967a1.067,1.067,0,0,0,.992.992h7.934a1.067,1.067,0,0,0,.992-.992V9.918h1.488a1.067,1.067,0,0,0,.992-.992V3.967a.978.978,0,0,0-.992-.992ZM3.967,1.488a.533.533,0,0,1,.5-.5h5.951a.533.533,0,0,1,.5.5V2.975H3.967Zm7.438,11.9a.533.533,0,0,1-.5.5H3.967a.533.533,0,0,1-.5-.5V8.43a.533.533,0,0,1,.5-.5h6.942a.533.533,0,0,1,.5.5v4.959ZM13.885,8.43a.533.533,0,0,1-.5.5H12.4V7.934a1.067,1.067,0,0,0-.992-.992H3.471a1.067,1.067,0,0,0-.992.992v.992H1.488a.533.533,0,0,1-.5-.5V4.463a.533.533,0,0,1,.5-.5h11.9a.533.533,0,0,1,.5.5V8.43Z" fill="#36b7ab"/></g></g></svg>