<svg xmlns="http://www.w3.org/2000/svg" width="55" height="55" viewBox="0 0 55 55"><defs><style>.a,.b{fill:#36b7ab;}.b{opacity:0.199;}</style></defs><g transform="translate(256.4 79.4)"><path class="a" d="M11.52,0A11.52,11.52,0,1,0,23.04,11.52,11.52,11.52,0,0,0,11.52,0Zm5.489,7.615L14.878,9.746h.76a.916.916,0,0,1,.913.91v.366a.916.916,0,0,1-.913.913h-2.92v1.411h2.92a.916.916,0,0,1,.913.913v.366a.916.916,0,0,1-.913.927h-2.92v3.136a.916.916,0,0,1-.91.913h-.369a.916.916,0,0,1-.913-.913V15.552H7.606a.916.916,0,0,1-.913-.913v-.38a.916.916,0,0,1,.913-.913h2.92V11.935H7.606a.916.916,0,0,1-.913-.913v-.366a.916.916,0,0,1,.913-.913h.553L6.028,7.612A1.1,1.1,0,0,1,7.577,6.062L11.1,9.579a1.089,1.089,0,0,1,.132.164H11.8a1.089,1.089,0,0,1,.132-.164L15.46,6.062a1.1,1.1,0,1,1,1.549,1.552Z" transform="translate(-240.42 -63.42)"/><circle class="b" cx="27.5" cy="27.5" r="27.5" transform="translate(-256.4 -79.4)"/></g></svg>