<svg xmlns="http://www.w3.org/2000/svg" width="55" height="55" viewBox="0 0 55 55"><g transform="translate(-193 -499)"><circle cx="27.5" cy="27.5" r="27.5" transform="translate(193 499)" fill="#36b7ab" opacity="0.199"/><g transform="translate(207.946 513.559)"><path d="M615.212,97.368l-8.807,15.254-2.966-1.713,8.807-15.253Zm0,0" transform="translate(-588.155 -93.232)" fill="#36b7ab"/><path d="M576.735,747.653l2.915-1.409-3.154-1.821Zm0,0" transform="translate(-561.894 -725.567)" fill="#36b7ab"/><path d="M18.853,20.359a1.164,1.164,0,0,1,.045.361,1.141,1.141,0,0,1-.645.986l-2.915,1.409a1.142,1.142,0,0,1-1.635-.944l-.2-2.725H5.348a1.142,1.142,0,1,1,0-2.284h8.926c.009-.017.011-.038.02-.055l1.98-3.429H5.348a1.142,1.142,0,1,1,0-2.284H17.593L22.64,2.652A3.7,3.7,0,0,0,19.143,0H3.695A3.764,3.764,0,0,0,0,3.829V22.054a3.763,3.763,0,0,0,3.695,3.828H19.143a3.763,3.763,0,0,0,3.694-3.828V13.728l-3.6,6.232a1.141,1.141,0,0,1-.386.4ZM5.348,5.626H18.289a1.142,1.142,0,1,1,0,2.284H5.348a1.142,1.142,0,0,1,0-2.284Zm0,0" fill="#36b7ab"/></g></g></svg>