<?xml version="1.0" standalone="no"?><!DOCTYPE svg PUBLIC "-//W3C//DTD SVG 1.1//EN"
  "http://www.w3.org/Graphics/SVG/1.1/DTD/svg11.dtd">
<svg t="1618728444492" class="icon" viewBox="0 0 1024 1024" version="1.1" xmlns="http://www.w3.org/2000/svg" p-id="4152"
     data-spm-anchor-id="a313x.7781069.0.i4" xmlns:xlink="http://www.w3.org/1999/xlink" width="48" height="48">
  <defs>
    <style type="text/css"></style>
  </defs>
  <path d="M512 0C228.894118 0 0 228.894118 0 512s228.894118 512 512 512 512-228.894118 512-512S795.105882 0 512 0z"
        fill="#d6f1ee" opacity=".478" p-id="4153" data-spm-anchor-id="a313x.7781069.0.i1" class="selected"></path>
  <path
    d="M725.835294 569.223529v171.670589H310.211765v-171.670589c-21.082353 9.035294-27.105882 12.047059-36.141177 12.047059V752.941176c0 12.047059 12.047059 24.094118 24.094118 24.094118h436.705882c12.047059 0 24.094118-9.035294 24.094118-24.094118v-171.670588c-27.105882 0-27.105882-6.023529-33.129412-12.047059zM310.211765 289.129412h415.623529c15.058824 0 27.105882-12.047059 27.105882-27.105883s-12.047059-27.105882-24.094117-27.105882h-421.647059c-15.058824 0-24.094118 15.058824-24.094118 27.105882 0 9.035294 12.047059 27.105882 27.105883 27.105883z m442.729411 18.070588H283.105882l-36.141176 138.541176c0 39.152941 30.117647 69.270588 69.270588 69.270589 36.141176 0 69.270588-30.117647 69.270588-69.270589 0 39.152941 30.117647 69.270588 69.270589 69.270589 36.141176 0 69.270588-30.117647 69.270588-69.270589 0 39.152941 30.117647 69.270588 69.270588 69.270589 36.141176 0 69.270588-30.117647 69.270588-69.270589 0 72.282353 69.270588 69.270588 69.270589 69.270589 36.141176 0 69.270588-30.117647 69.270588-69.270589L752.941176 307.2z"
    fill="#36b7ab" p-id="4154" data-spm-anchor-id="a313x.7781069.0.i2" class=""></path>
</svg>
