<svg xmlns="http://www.w3.org/2000/svg" width="295" height="308" viewBox="0 0 295 308"><defs><style>.a,.c{fill:#36b7ab;}.a{opacity:0.1;}.b{fill:none;}.d{fill:#fff;}</style></defs><g transform="translate(-168.653 -986.051)"><path class="a" d="M240.427,1021.74a2.764,2.764,0,0,0-1.888.634,2.649,2.649,0,0,0,.054,3.4l13.525,13.551a9.422,9.422,0,1,1-13.312,13.337l-4.207-4.214a.933.933,0,0,1-.259-.26l-11.94-11.963a10.026,10.026,0,0,0-7.157-2.927,10.369,10.369,0,0,0-7.39,3.043,10.872,10.872,0,0,0-3.112,7.371,9.938,9.938,0,0,0,2.849,7.329l10.871,10.89a.929.929,0,0,1,.366.366l1.809,1.813a12.074,12.074,0,0,1,0,17.033l-.86.863a12.008,12.008,0,0,1-16.942.06.926.926,0,0,1-.479-.429l-.04-.089L192.181,1071.4a12.739,12.739,0,0,0-9.117-3.647,14.868,14.868,0,0,0-10.459,4.314,13.574,13.574,0,0,0,0,19.149l17.017,17.046a.93.93,0,0,1,.214.98A133.549,133.549,0,0,0,234.6,1262.381H394.686a133.048,133.048,0,0,0,18.922-17.289.936.936,0,0,1,.663-.307h0a.958.958,0,0,1,.674.272l3.269,3.273a13.495,13.495,0,0,0,19.114,0,13.909,13.909,0,0,0,4.043-9.741,13.413,13.413,0,0,0-3.876-9.721l-6.423-6.435a.929.929,0,0,1-.34-.337l-.005-.009-14.644-14.671a7.384,7.384,0,1,1,10.434-10.451l11.744,11.763.025.026.08.081,7.835,7.848a10.019,10.019,0,0,0,7.15,2.942,10.235,10.235,0,0,0,7.324-17.442l-15.93-15.958a.928.928,0,0,1-.248-.859,134.381,134.381,0,0,0,3.317-29.537c0-73.568-59.741-133.419-133.174-133.419A131.712,131.712,0,0,0,256.46,1035.8a.918.918,0,0,1-1.059-.177l-13.317-13.342a2.4,2.4,0,0,0-1.657-.54"/><path class="b" d="M191.952,1003.232a8.865,8.865,0,1,0,8.869,8.865,8.867,8.867,0,0,0-8.869-8.865"/><path class="b" d="M198.632,1008.461a10.352,10.352,0,1,0,10.357,10.352,10.355,10.355,0,0,0-10.357-10.352"/><path class="c" d="M404.538,1015.618a.4.4,0,0,1-.4-.4V1010.6h-4.661a.4.4,0,0,1-.4-.4v-3.126a.4.4,0,0,1,.4-.4h4.657v-4.62a.4.4,0,0,1,.4-.4h3.159a.4.4,0,0,1,.4.4v4.616h4.658a.4.4,0,0,1,.4.4v3.123a.4.4,0,0,1-.4.4H408.1v4.619a.4.4,0,0,1-.4.4Zm-109.1-16.029a.4.4,0,0,1-.4-.4v-3.874h-3.913a.4.4,0,0,1-.4-.4v-2.55a.4.4,0,0,1,.4-.4h3.913v-3.875a.4.4,0,0,1,.4-.4h2.574a.4.4,0,0,1,.4.4v3.878h3.911a.4.4,0,0,1,.4.4v2.543a.4.4,0,0,1-.4.4h-3.91v3.878a.4.4,0,0,1-.4.4Zm57.263-7.416a6.174,6.174,0,1,1,6.172,6.124A6.147,6.147,0,0,1,352.7,992.173Z"/><path class="d" d="M398.168,1169.981a6.47,6.47,0,1,1,6.471,6.459A6.465,6.465,0,0,1,398.168,1169.981Zm15.751-15.381a6.125,6.125,0,1,1,6.125,6.115A6.127,6.127,0,0,1,413.919,1154.6Zm1.774,0a4.351,4.351,0,1,0,4.351-4.343A4.353,4.353,0,0,0,415.693,1154.6Zm-182.161-42.89a4.877,4.877,0,1,1,4.878,4.871A4.874,4.874,0,0,1,233.533,1111.71Zm-15.555-12.786a7.666,7.666,0,1,1,7.666,7.652A7.668,7.668,0,0,1,217.978,1098.923Zm1.775,0a5.891,5.891,0,1,0,5.891-5.882A5.893,5.893,0,0,0,219.753,1098.923Zm77.9-41.528a10.438,10.438,0,1,1,10.438,10.421A10.442,10.442,0,0,1,297.656,1057.4Zm1.774,0a8.664,8.664,0,1,0,8.664-8.65A8.667,8.667,0,0,0,299.43,1057.4Z"/><path class="c" d="M397.243,1170.259a7.365,7.365,0,1,1,7.365,7.362A7.372,7.372,0,0,1,397.243,1170.259Zm1.776,0a5.589,5.589,0,1,0,5.589-5.587A5.595,5.595,0,0,0,399.019,1170.259Zm-185.7-15.879a.4.4,0,0,1-.4-.4v-2.811H210.1a.4.4,0,0,1-.4-.4v-1.71a.4.4,0,0,1,.4-.4h2.812v-2.811a.4.4,0,0,1,.4-.4h1.71a.4.4,0,0,1,.4.4v2.811h2.812a.4.4,0,0,1,.4.4v1.71a.4.4,0,0,1-.4.4h-2.812v2.811a.4.4,0,0,1-.4.4Zm19.122-42.526a5.771,5.771,0,1,1,5.771,5.768A5.776,5.776,0,0,1,232.437,1111.855Zm1.776,0a3.994,3.994,0,1,0,3.995-3.994A4,4,0,0,0,234.213,1111.855Zm159.664-31.316a.4.4,0,0,1-.4-.4v-3.587h-3.588a.4.4,0,0,1-.4-.4v-2.318a.4.4,0,0,1,.4-.4h3.588v-3.588a.4.4,0,0,1,.4-.4H396.2a.4.4,0,0,1,.4.4v3.586h3.588a.4.4,0,0,1,.4.4v2.318a.4.4,0,0,1-.4.4H396.6v3.587a.4.4,0,0,1-.4.4Z"/><path class="c" d="M384.1,1294.051a.69.69,0,0,1-.69-.685v-2.912a.69.69,0,0,1,.69-.685h17.126a.689.689,0,0,1,.689.685v2.912a.689.689,0,0,1-.689.685Zm-114.169,0a.689.689,0,0,1-.689-.685v-2.912a.689.689,0,0,1,.689-.685h104.5a.69.69,0,0,1,.69.685v2.912a.69.69,0,0,1-.69.685Zm62.538-14.218a.69.69,0,0,1-.69-.685v-2.912a.69.69,0,0,1,.69-.685h45.958a.689.689,0,0,1,.689.685v2.912a.689.689,0,0,1-.689.685Zm-10.82,0a.689.689,0,0,1-.689-.685v-2.912a.689.689,0,0,1,.689-.685h5.5a.69.69,0,0,1,.691.685v2.912a.69.69,0,0,1-.691.685Zm-90.528,0a.69.69,0,0,1-.69-.685v-2.912a.69.69,0,0,1,.69-.685h83.246a.689.689,0,0,1,.689.685v2.912a.689.689,0,0,1-.689.685Zm189.587-12.842a.689.689,0,0,1-.689-.685V1263.4a.69.69,0,0,1,.689-.685h11.87a.69.69,0,0,1,.69.685v2.912a.69.69,0,0,1-.69.685Zm-210.909,0a.69.69,0,0,1-.69-.685V1263.4a.69.69,0,0,1,.69-.685H415.712a.69.69,0,0,1,.689.685v2.912a.689.689,0,0,1-.689.685Z"/><g transform="translate(174.002 1014.18)"><ellipse class="d" cx="53.5" cy="54" rx="53.5" ry="54" transform="translate(88.651 66.871)"/><ellipse class="d" cx="75.5" cy="28" rx="75.5" ry="28" transform="translate(65.651 162.871)"/><path class="c" d="M142.159,697.715c-20.6,0-40-2.879-54.624-8.1C72.357,684.194,64,676.745,64,668.667c0-5.879,4.414-11.462,12.771-16.155,7.746-4.344,18.615-7.833,31.438-10.084a1.745,1.745,0,1,1,.611,3.437c-12.439,2.181-22.942,5.531-30.339,9.7-5.025,2.826-10.991,7.38-10.991,13.12,0,6.4,7.729,12.84,21.232,17.656,14.254,5.094,33.235,7.9,53.438,7.9,16.312,0,31.822-1.814,44.872-5.269a1.741,1.741,0,0,1,.89,3.367c-13.329,3.507-29.153,5.373-45.761,5.373Zm66.819-14.044a1.722,1.722,0,0,1-1.465-.8,1.747,1.747,0,0,1,.523-2.408c4.013-2.582,8.793-6.717,8.793-11.794,0-5.792-6.106-10.4-11.218-13.242-7.554-4.187-18.231-7.537-30.88-9.7a1.742,1.742,0,0,1,.576-3.437c13.032,2.216,24.093,5.7,31.979,10.084C215.8,657.1,220.3,662.736,220.3,668.65c0,5.269-3.594,10.363-10.4,14.725A1.661,1.661,0,0,1,208.978,683.671Zm-12.561,2.53a2.791,2.791,0,1,0,2.791-2.791A2.791,2.791,0,0,0,196.417,686.2Z" transform="translate(0 -477.545)"/><path class="c" d="M371.081,767a101.78,101.78,0,0,1-20.185-1.78c-6.542-1.378-9.6-3.262-9.6-5.9,0-3.193,4.8-4.623,6.368-5.094a68.882,68.882,0,0,1,13.486-2.216,1.75,1.75,0,1,1,.279,3.489,67.572,67.572,0,0,0-11.951,1.849c-3.245.872-4.292,1.675-4.606,1.989.506.523,2.512,1.675,7.729,2.687a114.5,114.5,0,0,0,36.951,0c5.234-.994,7.24-2.163,7.746-2.687-.384-.384-1.675-1.221-4.833-2.041a70.762,70.762,0,0,0-12.457-1.832,1.749,1.749,0,0,1,.244-3.489,70.769,70.769,0,0,1,14.009,2.2c4.449,1.291,6.612,2.983,6.612,5.164,0,2.634-3.053,4.519-9.6,5.9a104.927,104.927,0,0,1-20.2,1.762ZM397.407,759.463Z" transform="translate(-228.922 -568.113)"/><path class="c" d="M249.461,192.414a1.7,1.7,0,0,1-.768-.174A131.3,131.3,0,0,1,221.425,173.1a95.6,95.6,0,0,1-18.807-22.855A61.839,61.839,0,0,1,194,119.3a55.318,55.318,0,0,1,13.521-36.306,1.744,1.744,0,1,1,2.634,2.285,51.8,51.8,0,0,0-12.666,34c0,22.541,14.306,40.3,26.291,51.222a132.513,132.513,0,0,0,25.7,18.2,133.159,133.159,0,0,0,25.751-18.249c11.968-10.921,26.239-28.647,26.239-51.17a52.053,52.053,0,0,0-51.99-51.99h-.07a52.036,52.036,0,0,0-23.8,5.792,1.748,1.748,0,0,1-1.605-3.105A55.419,55.419,0,0,1,249.392,63.8h.087a55.455,55.455,0,0,1,55.462,55.462,61.839,61.839,0,0,1-8.618,30.95,95.6,95.6,0,0,1-18.807,22.855,131.046,131.046,0,0,1-27.286,19.173A1.7,1.7,0,0,1,249.461,192.414Z" transform="translate(-107.32)"/><path class="c" d="M338.637,190.588a22.174,22.174,0,1,1,22.174-22.174,22.2,22.2,0,0,1-22.174,22.174Zm0-40.877a18.694,18.694,0,1,0,18.685,18.7,18.707,18.707,0,0,0-18.685-18.7ZM302,126.891a2.791,2.791,0,1,0,2.791-2.791A2.791,2.791,0,0,0,302,126.891Z" transform="translate(-196.478 -49.78)"/></g></g></svg>