<svg xmlns="http://www.w3.org/2000/svg" width="295" height="308" viewBox="0 0 295 308"><defs><style>.a,.c{fill:#36b7ab;}.a{opacity:0.1;}.b{fill:none;}.d{fill:#fff;}</style></defs><g transform="translate(-168.653 -986.051)"><path class="a" d="M240.427,1021.74a2.764,2.764,0,0,0-1.888.634,2.649,2.649,0,0,0,.054,3.4l13.525,13.551a9.422,9.422,0,1,1-13.312,13.337l-4.207-4.214a.933.933,0,0,1-.259-.26l-11.94-11.963a10.026,10.026,0,0,0-7.157-2.927,10.369,10.369,0,0,0-7.39,3.043,10.872,10.872,0,0,0-3.112,7.371,9.938,9.938,0,0,0,2.849,7.329l10.871,10.89a.929.929,0,0,1,.366.366l1.809,1.813a12.074,12.074,0,0,1,0,17.033l-.86.863a12.008,12.008,0,0,1-16.942.06.926.926,0,0,1-.479-.429l-.04-.089L192.181,1071.4a12.739,12.739,0,0,0-9.117-3.647,14.868,14.868,0,0,0-10.459,4.314,13.574,13.574,0,0,0,0,19.149l17.017,17.046a.93.93,0,0,1,.214.98A133.549,133.549,0,0,0,234.6,1262.381H394.686a133.048,133.048,0,0,0,18.922-17.289.936.936,0,0,1,.663-.307h0a.958.958,0,0,1,.674.272l3.269,3.273a13.495,13.495,0,0,0,19.114,0,13.909,13.909,0,0,0,4.043-9.741,13.413,13.413,0,0,0-3.876-9.721l-6.423-6.435a.929.929,0,0,1-.34-.337l-.005-.009-14.644-14.671a7.384,7.384,0,1,1,10.434-10.451l11.744,11.763.025.026.08.081,7.835,7.848a10.019,10.019,0,0,0,7.15,2.942,10.235,10.235,0,0,0,7.324-17.442l-15.93-15.958a.928.928,0,0,1-.248-.859,134.381,134.381,0,0,0,3.317-29.537c0-73.568-59.741-133.419-133.174-133.419A131.712,131.712,0,0,0,256.46,1035.8a.918.918,0,0,1-1.059-.177l-13.317-13.342a2.4,2.4,0,0,0-1.657-.54"/><path class="b" d="M191.952,1003.232a8.865,8.865,0,1,0,8.869,8.865,8.867,8.867,0,0,0-8.869-8.865"/><path class="b" d="M198.632,1008.461a10.352,10.352,0,1,0,10.357,10.352,10.355,10.355,0,0,0-10.357-10.352"/><path class="c" d="M404.538,1015.618a.4.4,0,0,1-.4-.4V1010.6h-4.661a.4.4,0,0,1-.4-.4v-3.126a.4.4,0,0,1,.4-.4h4.657v-4.62a.4.4,0,0,1,.4-.4h3.159a.4.4,0,0,1,.4.4v4.616h4.658a.4.4,0,0,1,.4.4v3.123a.4.4,0,0,1-.4.4H408.1v4.619a.4.4,0,0,1-.4.4Zm-109.1-16.029a.4.4,0,0,1-.4-.4v-3.874h-3.913a.4.4,0,0,1-.4-.4v-2.55a.4.4,0,0,1,.4-.4h3.913v-3.875a.4.4,0,0,1,.4-.4h2.574a.4.4,0,0,1,.4.4v3.878h3.911a.4.4,0,0,1,.4.4v2.543a.4.4,0,0,1-.4.4h-3.91v3.878a.4.4,0,0,1-.4.4Zm57.263-7.416a6.174,6.174,0,1,1,6.172,6.124A6.147,6.147,0,0,1,352.7,992.173Z"/><path class="d" d="M398.168,1169.981a6.47,6.47,0,1,1,6.471,6.459A6.465,6.465,0,0,1,398.168,1169.981Zm15.751-15.381a6.125,6.125,0,1,1,6.125,6.115A6.127,6.127,0,0,1,413.919,1154.6Zm1.774,0a4.351,4.351,0,1,0,4.351-4.343A4.353,4.353,0,0,0,415.693,1154.6Zm-182.161-42.89a4.877,4.877,0,1,1,4.878,4.871A4.874,4.874,0,0,1,233.533,1111.71Zm-15.555-12.786a7.666,7.666,0,1,1,7.666,7.652A7.668,7.668,0,0,1,217.978,1098.923Zm1.775,0a5.891,5.891,0,1,0,5.891-5.882A5.893,5.893,0,0,0,219.753,1098.923Zm77.9-41.528a10.438,10.438,0,1,1,10.438,10.421A10.442,10.442,0,0,1,297.656,1057.4Zm1.774,0a8.664,8.664,0,1,0,8.664-8.65A8.667,8.667,0,0,0,299.43,1057.4Z"/><path class="c" d="M397.243,1170.259a7.365,7.365,0,1,1,7.365,7.362A7.372,7.372,0,0,1,397.243,1170.259Zm1.776,0a5.589,5.589,0,1,0,5.589-5.587A5.595,5.595,0,0,0,399.019,1170.259Zm-185.7-15.879a.4.4,0,0,1-.4-.4v-2.811H210.1a.4.4,0,0,1-.4-.4v-1.71a.4.4,0,0,1,.4-.4h2.812v-2.811a.4.4,0,0,1,.4-.4h1.71a.4.4,0,0,1,.4.4v2.811h2.812a.4.4,0,0,1,.4.4v1.71a.4.4,0,0,1-.4.4h-2.812v2.811a.4.4,0,0,1-.4.4Zm19.122-42.526a5.771,5.771,0,1,1,5.771,5.768A5.776,5.776,0,0,1,232.437,1111.855Zm1.776,0a3.994,3.994,0,1,0,3.995-3.994A4,4,0,0,0,234.213,1111.855Zm159.664-31.316a.4.4,0,0,1-.4-.4v-3.587h-3.588a.4.4,0,0,1-.4-.4v-2.318a.4.4,0,0,1,.4-.4h3.588v-3.588a.4.4,0,0,1,.4-.4H396.2a.4.4,0,0,1,.4.4v3.586h3.588a.4.4,0,0,1,.4.4v2.318a.4.4,0,0,1-.4.4H396.6v3.587a.4.4,0,0,1-.4.4Z"/><path class="c" d="M384.1,1294.051a.69.69,0,0,1-.69-.685v-2.912a.69.69,0,0,1,.69-.685h17.126a.689.689,0,0,1,.689.685v2.912a.689.689,0,0,1-.689.685Zm-114.169,0a.689.689,0,0,1-.689-.685v-2.912a.689.689,0,0,1,.689-.685h104.5a.69.69,0,0,1,.69.685v2.912a.69.69,0,0,1-.69.685Zm62.538-14.218a.69.69,0,0,1-.69-.685v-2.912a.69.69,0,0,1,.69-.685h45.958a.689.689,0,0,1,.689.685v2.912a.689.689,0,0,1-.689.685Zm-10.82,0a.689.689,0,0,1-.689-.685v-2.912a.689.689,0,0,1,.689-.685h5.5a.69.69,0,0,1,.691.685v2.912a.69.69,0,0,1-.691.685Zm-90.528,0a.69.69,0,0,1-.69-.685v-2.912a.69.69,0,0,1,.69-.685h83.246a.689.689,0,0,1,.689.685v2.912a.689.689,0,0,1-.689.685Zm189.587-12.842a.689.689,0,0,1-.689-.685V1263.4a.69.69,0,0,1,.689-.685h11.87a.69.69,0,0,1,.69.685v2.912a.69.69,0,0,1-.69.685Zm-210.909,0a.69.69,0,0,1-.69-.685V1263.4a.69.69,0,0,1,.69-.685H415.712a.69.69,0,0,1,.689.685v2.912a.689.689,0,0,1-.689.685Z"/><path class="d" d="M316.608,1168.16s-4.188-13.943,10.729-15.785c0,0,7.066-21.047,28.526-17.626,0,0,10.206,0,17.534,15,0,0,12.037,5.262,9.944,18.415Zm-53.882-45.222s-3.04-10.126,7.792-11.464c0,0,5.131-15.284,20.715-12.8,0,0,7.412,0,12.733,10.891,0,0,8.743,3.821,7.223,13.374Z"/><path class="c" d="M316.571,1169.346a.792.792,0,0,1-.758-.559c-.079-.26-1.9-6.418,1.305-11.3,1.907-2.9,5.161-4.7,9.678-5.343,1.142-2.868,7.959-17.971,24.653-17.971a30.783,30.783,0,0,1,4.694.374c1,.024,10.9.632,18.166,15.106,1.833.907,12.2,6.627,10.2,19.029a.79.79,0,0,1-.781.662Zm11.547-16.232a.79.79,0,0,1-.653.529c-4.274.521-7.308,2.1-9.016,4.7-2.286,3.474-1.6,7.9-1.26,9.435h65.854c1.484-11.857-9.523-16.758-9.637-16.807a.792.792,0,0,1-.4-.374c-3.688-7.459-8.1-11-11.156-12.651a13.756,13.756,0,0,0-5.782-1.821.74.74,0,0,1-.121-.009,29.012,29.012,0,0,0-4.5-.365C334.22,1135.745,328.178,1152.94,328.118,1153.114Zm-65.771-28.739a.792.792,0,0,1-.758-.559c-.058-.192-1.406-4.757.974-8.384,1.4-2.137,3.774-3.468,7.054-3.959.972-2.379,6.016-13.071,18.057-13.071a22.333,22.333,0,0,1,3.43.274c.836.024,8.046.547,13.333,11.024,1.531.773,8.911,5.008,7.461,14.012a.79.79,0,0,1-.782.662Zm8.591-11.934a.8.8,0,0,1-.654.529c-3.041.37-5.193,1.488-6.4,3.32a9.023,9.023,0,0,0-.918,6.513h47.457c.917-8.316-6.813-11.758-6.893-11.792a.782.782,0,0,1-.394-.375c-5.047-10.2-11.822-10.387-12.109-10.389a.835.835,0,0,1-.119-.01,20.812,20.812,0,0,0-3.237-.262C275.342,1099.974,271.111,1111.932,270.937,1112.44Z"/><path class="d" d="M318.819,1196.34s-14.367.447-20.2,0-6.51-4.7-6.51-4.7v-17.227l-15.264,8.725v9.129a1.162,1.162,0,0,1-1.162,1.162H270.6a1.166,1.166,0,0,1-1.167-1.166v-35.705a1.163,1.163,0,0,1,1.163-1.162h5.079a1.166,1.166,0,0,1,1.166,1.166v7.559l15.264-8.725v-36.692c3.592-24.61,26.713-38.034,26.713-38.034s23.121,13.423,26.712,38.034V1155.4l15.265,8.725v19.017l-15.265-8.725v17.227s-.673,4.25-6.509,4.7c-1.946.149-4.839.2-7.832.2C325.2,1196.538,318.819,1196.34,318.819,1196.34Zm43.144-2.909a1.166,1.166,0,0,1-1.167-1.166v-35.705a1.162,1.162,0,0,1,1.162-1.162h5.079a1.167,1.167,0,0,1,1.167,1.167v35.7a1.162,1.162,0,0,1-1.163,1.162Z"/><path class="c" d="M301.369,1127.962a17.15,17.15,0,1,1,17.15,17.142A17.165,17.165,0,0,1,301.369,1127.962Zm1.72,0a15.43,15.43,0,1,0,15.43-15.421A15.444,15.444,0,0,0,303.089,1127.962Zm3.981,0a11.45,11.45,0,1,1,11.449,11.444A11.458,11.458,0,0,1,307.07,1127.962Zm1.72,0a9.729,9.729,0,1,0,9.729-9.724A9.738,9.738,0,0,0,308.789,1127.962Z"/><path class="c" d="M303.281,1204.289l6.822-6.785c-1.179.013-2.4.021-3.592.021-3.479,0-6.123-.067-7.857-.2a8.121,8.121,0,0,1-6.01-2.812,5.86,5.86,0,0,1-1.234-2.559l-.01-.13v-15.656l-13.5,7.7v8.577a2,2,0,0,1-2,1.994h-5.048a2,2,0,0,1-2-1.994v-35.455a2,2,0,0,1,2-1.994H275.9a2,2,0,0,1,2,1.994v6.059l13.5-7.7v-36l.008-.061c3.59-24.552,26.753-38.233,26.986-38.368l.426-.247.424.247c.233.135,23.4,13.815,26.987,38.368l.008.121v35.944l13.5,7.7v-6.06a2,2,0,0,1,2-1.994h5.048a2,2,0,0,1,2,1.994v35.455a2,2,0,0,1-2,1.994h-5.048a2,2,0,0,1-2-1.994v-8.578l-13.5-7.7v15.721l-.011.065a5.848,5.848,0,0,1-1.234,2.559,8.117,8.117,0,0,1-6.01,2.812c-1.734.133-4.378.2-7.856.2h0c-1.2,0-2.413-.008-3.592-.021l6.823,6.785-15.538,34.223Zm2.019.367,13.52,29.776,13.519-29.776-7.169-7.131h-12.7Zm25.827-8.81h0c3.436,0,6.035-.066,7.725-.195,4.746-.362,5.6-3.468,5.7-3.907v-10.469H293.087v10.47c.1.455.946,3.543,5.7,3.906,1.69.129,4.29.195,7.726.195,5.875,0,12.218-.195,12.282-.2C318.909,1195.651,325.254,1195.846,331.127,1195.846Zm30.3-38.854v35.455a.319.319,0,0,0,.317.314h5.048a.32.32,0,0,0,.317-.314v-35.455a.32.32,0,0,0-.317-.314h-5.048A.319.319,0,0,0,361.425,1156.992Zm-90.9,0v35.455a.32.32,0,0,0,.317.314H275.9a.319.319,0,0,0,.317-.314v-35.455a.319.319,0,0,0-.317-.314h-5.048A.32.32,0,0,0,270.53,1156.992Zm89.207,24.942v-16.947l-13.5-7.7v16.945Zm-81.837,0,13.5-7.7v-16.947l-13.5,7.7Zm66.651-2.337v-60.128c-1.611-10.907-7.233-19.606-12.854-25.831H305.941c-5.621,6.225-11.243,14.924-12.853,25.831V1179.6Zm-14.425-87.638a64.246,64.246,0,0,0-11.306-9.328,64.209,64.209,0,0,0-11.308,9.328Z"/></g></svg>