<svg xmlns="http://www.w3.org/2000/svg" width="295" height="309" viewBox="0 0 295 309"><defs><style>.a,.c{fill:#36b7ab;}.a{opacity:0.1;}.b{fill:none;}.d{fill:#fff;}</style></defs><g transform="translate(-168.283 -119.504)"><path class="a" d="M240.057,153.346a2.763,2.763,0,0,0-1.888.634,2.654,2.654,0,0,0,.054,3.406l13.526,13.559a9.425,9.425,0,1,1-13.312,13.345l-4.208-4.218a.915.915,0,0,1-.259-.259L222.03,167.842a10.025,10.025,0,0,0-7.158-2.929,10.363,10.363,0,0,0-7.389,3.045,10.878,10.878,0,0,0-3.112,7.375,9.939,9.939,0,0,0,2.849,7.334l10.87,10.9a.915.915,0,0,1,.366.366l1.809,1.814a12.085,12.085,0,0,1,0,17.044l-.859.863a12,12,0,0,1-16.942.059.922.922,0,0,1-.48-.429l-.04-.089-10.131-10.159a12.739,12.739,0,0,0-9.117-3.651,14.861,14.861,0,0,0-10.459,4.317,13.588,13.588,0,0,0,0,19.162l17.016,17.056a.931.931,0,0,1,.214.98,133.7,133.7,0,0,0,44.762,153.236h160.09a133.075,133.075,0,0,0,18.921-17.3.93.93,0,0,1,.663-.307h0a.951.951,0,0,1,.674.272l3.269,3.275a13.491,13.491,0,0,0,19.114,0A13.92,13.92,0,0,0,441,370.331a13.429,13.429,0,0,0-3.875-9.728l-6.424-6.438a.939.939,0,0,1-.34-.337l-.005-.009-14.644-14.68a7.387,7.387,0,1,1,10.434-10.459L437.9,340.452l.025.025.08.082,7.835,7.853a10.021,10.021,0,0,0,7.151,2.944,10.243,10.243,0,0,0,7.323-17.454l-15.928-15.967a.928.928,0,0,1-.248-.86,134.524,134.524,0,0,0,3.316-29.554c0-73.614-59.741-133.5-133.173-133.5a131.649,131.649,0,0,0-58.185,13.394.916.916,0,0,1-1.059-.178l-13.317-13.35a2.393,2.393,0,0,0-1.657-.539"/><path class="b" d="M188.284,136.742a8.894,8.894,0,1,0,8.882,8.894,8.888,8.888,0,0,0-8.882-8.894"/><path class="b" d="M194.975,141.987a10.386,10.386,0,1,0,10.371,10.386,10.379,10.379,0,0,0-10.371-10.386"/><path class="c" d="M401.159,149.167a.4.4,0,0,1-.4-.4v-4.632h-4.666a.4.4,0,0,1-.4-.4v-3.137a.4.4,0,0,1,.4-.4h4.664v-4.635a.4.4,0,0,1,.4-.4h3.162a.4.4,0,0,1,.4.4v4.632h4.666a.4.4,0,0,1,.4.4v3.137a.4.4,0,0,1-.4.4h-4.664v4.635a.4.4,0,0,1-.4.4Zm-109.248-16.08a.4.4,0,0,1-.4-.4V128.8h-3.918a.4.4,0,0,1-.4-.4v-2.555a.4.4,0,0,1,.4-.4h3.915v-3.891a.4.4,0,0,1,.4-.4h2.577a.4.4,0,0,1,.4.4v3.887h3.918a.4.4,0,0,1,.4.4v2.555a.4.4,0,0,1-.4.4h-3.915v3.888a.4.4,0,0,1-.4.4Zm57.343-7.44a6.182,6.182,0,1,1,6.182,6.143A6.162,6.162,0,0,1,349.253,125.647Z"/><path class="d" d="M394.78,304.031a6.479,6.479,0,1,1,6.478,6.48A6.48,6.48,0,0,1,394.78,304.031ZM410.551,288.6a6.133,6.133,0,1,1,6.133,6.135A6.14,6.14,0,0,1,410.551,288.6Zm1.776,0a4.356,4.356,0,1,0,4.357-4.358A4.361,4.361,0,0,0,412.328,288.6ZM229.922,245.572a4.884,4.884,0,1,1,4.884,4.888A4.886,4.886,0,0,1,229.922,245.572Zm-15.575-12.829a7.676,7.676,0,1,1,7.676,7.678A7.685,7.685,0,0,1,214.347,232.743Zm1.777,0a5.9,5.9,0,1,0,5.9-5.9A5.906,5.906,0,0,0,216.124,232.743Zm78.007-41.661a10.452,10.452,0,1,1,10.453,10.455A10.466,10.466,0,0,1,294.131,191.082Zm1.776,0a8.676,8.676,0,1,0,8.677-8.678A8.687,8.687,0,0,0,295.907,191.082Z"/><path class="c" d="M393.853,304.311a7.375,7.375,0,1,1,7.375,7.386A7.389,7.389,0,0,1,393.853,304.311Zm1.779,0a5.6,5.6,0,1,0,5.6-5.606A5.607,5.607,0,0,0,395.632,304.311Zm-185.955-15.93a.4.4,0,0,1-.4-.4v-2.821h-2.816a.4.4,0,0,1-.4-.4v-1.716a.4.4,0,0,1,.4-.4h2.816v-2.82a.4.4,0,0,1,.4-.4h1.712a.4.4,0,0,1,.4.4v2.82h2.815a.4.4,0,0,1,.4.4v1.716a.4.4,0,0,1-.4.4h-2.816v2.82a.4.4,0,0,1-.4.4Zm19.148-42.665A5.778,5.778,0,1,1,234.6,251.5,5.788,5.788,0,0,1,228.825,245.717Zm1.779,0a4,4,0,1,0,4-4.006A4.007,4.007,0,0,0,230.6,245.717ZM390.483,214.3a.4.4,0,0,1-.4-.4v-3.6h-3.592a.4.4,0,0,1-.4-.4v-2.326a.4.4,0,0,1,.4-.4h3.593v-3.6a.4.4,0,0,1,.4-.4H392.8a.4.4,0,0,1,.4.4v3.6H396.8a.4.4,0,0,1,.4.4v2.326a.4.4,0,0,1-.4.4h-3.593v3.6a.4.4,0,0,1-.4.4Z"/><path class="c" d="M380.689,428.5a.691.691,0,0,1-.69-.686V424.9a.692.692,0,0,1,.69-.688h17.149a.692.692,0,0,1,.691.688v2.921a.691.691,0,0,1-.691.686Zm-114.322,0a.69.69,0,0,1-.69-.686V424.9a.691.691,0,0,1,.69-.688H371a.692.692,0,0,1,.692.688v2.921a.691.691,0,0,1-.692.686Zm62.621-14.264a.691.691,0,0,1-.691-.686v-2.921a.692.692,0,0,1,.691-.687H375.01a.691.691,0,0,1,.69.687v2.921a.69.69,0,0,1-.69.686Zm-10.833,0a.69.69,0,0,1-.691-.686v-2.921a.691.691,0,0,1,.691-.687h5.5a.691.691,0,0,1,.69.687v2.921a.69.69,0,0,1-.69.686Zm-90.651,0a.69.69,0,0,1-.69-.686v-2.921a.691.691,0,0,1,.69-.687h83.357a.692.692,0,0,1,.691.687v2.921a.691.691,0,0,1-.691.686Zm189.843-12.884a.69.69,0,0,1-.69-.686V397.75a.69.69,0,0,1,.69-.687h11.886a.69.69,0,0,1,.69.687v2.921a.69.69,0,0,1-.69.686Zm-211.194,0a.69.69,0,0,1-.69-.686V397.75a.69.69,0,0,1,.69-.687H412.346a.69.69,0,0,1,.691.687v2.921a.69.69,0,0,1-.691.686Z"/><path class="d" d="M256.989,349.063V268.426l15.7-9.111v-32.46s.683-6.491,7.509-6.491h56.652l21.672,21.7v17.255l16.326,9.111v80.637Z"/><path class="c" d="M256.693,350.249a.889.889,0,0,1-.889-.89V268.724a.891.891,0,0,1,.443-.771L271.5,259.1V227.152a.787.787,0,0,1,.006-.094c.007-.073.853-7.287,8.391-7.287h56.653a.89.89,0,0,1,.628.26l21.672,21.7a.892.892,0,0,1,.094.112l0,0,.007.01.006.009,0,0a.887.887,0,0,1,.146.446v0c0,.007,0,.013,0,.02s0,.015,0,.022v16.732l15.869,8.857a.888.888,0,0,1,.456.777v80.636a.889.889,0,0,1-.889.89Zm.888-81.014V348.47h116.08V269.245l-14.548-8.119v20.35L363,278.7a.889.889,0,0,1,1.032,1.449l-47.894,34.168a.889.889,0,0,1-1.024.006l-43.206-30.109-.046-.032-5.778-4.027a.889.889,0,1,1,1.015-1.46l4.406,3.07V261.156Zm58.034,43.274,41.721-29.764V260.5H273.281v22.506Zm41.721-53.787V243.246H343.379l-.07,0c-2.487-.2-7.391-1.93-8.147-7.079a.978.978,0,0,1-.009-.129V221.55H279.9a6.406,6.406,0,0,0-6.619,5.656v31.516ZM336.93,235.969c.75,4.806,6.049,5.453,6.489,5.5h12.659L336.93,222.3Zm27.688,105.615-13.31-12.3a.889.889,0,0,1,1.206-1.307l13.31,12.3a.889.889,0,1,1-1.206,1.306Zm-98.665-.033a.891.891,0,0,1,.017-1.258l12.628-12.3a.889.889,0,1,1,1.239,1.275l-12.627,12.3a.886.886,0,0,1-1.257-.018Zm17.019-64.137a.89.89,0,0,1,0-1.779h61.261a.89.89,0,0,1,0,1.779Zm25.17-12.13a.889.889,0,0,1,0-1.778h36.091a.889.889,0,0,1,0,1.778Zm-25.17,0a.889.889,0,0,1,0-1.778H302.34a.889.889,0,0,1,0,1.778Zm44.707-13.837a.89.89,0,0,1,0-1.78h16.554a.89.89,0,0,1,0,1.78Zm-44.707,0a.89.89,0,0,1,0-1.78h38.735a.89.89,0,0,1,0,1.78Zm0-12.3a.889.889,0,0,1,0-1.778h38.735a.889.889,0,0,1,0,1.778Z"/><path class="d" d="M273.558,256.532H357.1V261.9h-83.54Z"/></g></svg>